<?xml version="1.0" encoding="UTF-8"?>
<svg enable-background="new 0 0 3000 3000" version="1.1" viewBox="0 0 2560.9 2988.6" xml:space="preserve" xmlns="http://www.w3.org/2000/svg">
<style type="text/css">
	.st0{display:none;}
	.st1{display:inline;fill:#0C0C0C;}
	.st2{display:none;fill:#FFFFFF;}
	.st3{fill:url(#a);}
	.st4{fill:#202D49;}
</style>
<g class="st0" transform="translate(-221.36 -7.7181)">
	<rect class="st1" x="3194.9" y="34.37" width="2964.9" height="1127.8"/>
</g>

	<rect class="st2" x="-221.36" y="-7.7181" width="3e3" height="3e3"/>
	
	<linearGradient id="a" x1="-461.55" x2="2075.3" y1="-144.1" y2="1982.2" gradientUnits="userSpaceOnUse">
		<stop stop-color="#D6DCF9" offset="0"/>
		<stop stop-color="#A1C0F5" offset="1"/>
	</linearGradient>
	
	<g transform="matrix(1.5802 0 0 1.5802 -1089.9 -875.97)">
		<path class="st4" d="m1224.4 2090.1c-26.57 22.89-62.54 24.11-93.64 10.23-5.82-2.59-5.69-9.67-6.03-15.09-0.58-9.34-1.37-18.6-2.88-27.85-1.14-6.98-3.38-14.51-0.81-21.44 0.69-1.86 1.91-3.46 3.17-4.98 4.25-5.12 7.6-8.53 13.97-10.19 33.33-8.65 66.47-18.07 99.7-27.11 14.23-3.8 24.46-15.7 26.06-30.26l11.15-96.21 93.28-25.36c14.24-3.81 24.48-15.7 26.06-30.26l11.06-96.09 93.25-25.37c14.18-3.74 24.37-15.59 25.97-30.13l11.15-96.2 93.03-25.33c6.84-1.64 13.02-5.48 17.91-11.14 4.84-5.63 7.71-12.32 8.29-19.05l12.37-106.94 93.64-84.33c24.3-27.43 36.28-62.91 33.74-99.98-2.77-36.77-19.64-70.18-47.47-94.1-27.73-23.85-63.1-35.47-99.55-32.72l-16.55 1.24c-9.43 0.75-18.21 5.12-24.38 12.37-6.13 7.19-9.06 16.32-8.28 25.55 0.62 9.41 4.9 18 12.04 24.19 7.19 6.24 16.42 9.29 25.97 8.56l16.55-1.24c17.53-1.33 34.59 4.29 48 15.8 13.51 11.63 21.65 27.79 22.88 45.52 1.17 16.72-4.66 33.86-15.37 47.17l-99.2 88.85c-6.18 5.77-10.01 13.34-11.06 21.95l-10.95 96.17-93.51 25.29c-13.98 3.91-24.16 15.75-25.94 30.24l-10.93 96.17-93.51 25.31c-13.98 3.9-24.16 15.73-25.94 30.24l-10.95 96.17-93.5 25.31c-13.98 3.9-24.17 15.75-25.95 30.26l-11.05 96.28-93.56 25.3c-2.8 0.81-5.46 1.97-6.54 2.76-4.27 2.03-7.99 4.85-11.04 8.41-3.31 3.86-6.61 8.02-9.99 12.31-13.41 16.93-27.26 34.44-46.53 37.31-8.69 1.08-18.59-0.73-31.62-6.72l-17.16-7.74c-47.26-21.01-100.82-44.84-110-97.66-5.07-29.58 3.49-60.75 22.93-83.35 13.85-16.11 32-27.25 52.5-32.21l4.85-1.17 365.29-774.31-2.06-4.3c-1.1-2.28-2.12-4.67-2.91-7.1l-1.1-2.28c-45.61-70.6-39.21-164.4 15.57-228.13 57.46-66.91 152.38-85.84 230.89-46.06l3.73 1.91 300.88-174.23h-929.8c-132.99 0-240.8 107.81-240.8 240.8v1409.7c0 132.99 107.81 240.8 240.8 240.8h1139c132.99 0 240.8-107.81 240.8-240.8v-989.18c-334.95 279.58-1085.9 874.45-1085.9 874.45z"/>
		<path class="st4" d="m1514.1 787.1-2.5-0.55c-5.81-1.28-12.39-2.72-18.02-2.31-28.74-2.58-60.56 6.99-84.91 25.58-22.94 17.34-39.95 44.49-46.69 74.66-6.02 29.32-3.68 57.37 6.8 81.14l8.89 20.16 9.32-19.96c9.51-20.33 19.7-41.7 30.8-59.94 10.27-17.23 21.44-30.27 34.07-39.8 15.26-11.3 30.12-18.4 47.84-22.66 4.83-1.75 10-2.69 15.33-3.7 4.96-0.93 10.03-1.93 15.16-3.39l7.54-1.2c9.02-1.41 18.35-2.85 28.56-5.88l19.43-5.75-16.39-11.92c-11.1-8.08-23.26-13.86-36.22-19.62-6.33-1.76-12.5-3.4-19.01-4.86z"/>
		<path class="st4" d="m924.33 1853.2c-9.4 0.79-17.98 5.03-24.16 12.21-6.13 7.11-9.12 16.22-8.41 25.65 0.72 9.42 5.03 17.97 12.16 24.1 7.19 6.17 16.33 9.18 25.73 8.44 0.84-0.07 1.68-0.15 2.5-0.27 8.38-1.25 15.95-5.43 21.54-11.95 12.67-14.76 10.98-37.07-3.77-49.73-7.14-6.14-16.23-9.14-25.59-8.45z"/>
	</g>

</svg>
